<svg width="23" height="21" viewBox="0 0 23 21" fill="none" xmlns="http://www.w3.org/2000/svg">
<path d="M9.59548 0.768251C9.35341 0.796972 9.09904 0.874926 8.89389 0.989805C8.45489 1.23598 8.07743 1.79807 8.02819 2.274L8.00357 2.50376H5.32851C3.70378 2.50376 2.56729 2.52017 2.436 2.54479C1.73851 2.67608 1.17232 3.24227 1.04103 3.93566C1.01641 4.07926 1 6.53276 1 10.849C1 16.474 1.01231 17.5818 1.05744 17.7869C1.19694 18.3736 1.62774 18.8372 2.22265 19.0424C2.4319 19.1162 2.59191 19.1203 4.52025 19.1203H6.59219L6.83426 19.387C7.24865 19.8424 7.86818 20.0681 8.45899 19.9819C8.79132 19.9368 20.6116 16.3878 20.9235 16.2442C21.6127 15.9242 22.0559 15.157 21.9943 14.402C21.9656 14.0574 18.4166 2.20015 18.2238 1.80627C18.0556 1.46163 17.7273 1.14982 17.3294 0.952881C17.0258 0.805178 17.0134 0.801075 16.5293 0.801075L16.037 0.805178L13.8419 1.46984C12.6357 1.8391 11.61 2.14681 11.5608 2.15912C11.4869 2.17963 11.4623 2.15091 11.4048 1.96218C11.2243 1.4124 10.7976 0.998013 10.2314 0.829794C10.055 0.776457 9.7596 0.747738 9.59548 0.768251ZM10.1535 1.73653C10.3627 1.8473 10.5514 2.09347 10.5843 2.30272C10.6171 2.49966 10.6007 2.50376 9.64882 2.50376C8.80773 2.50376 8.84466 2.51607 8.92261 2.24528C9.05801 1.75294 9.68985 1.49446 10.1535 1.73653ZM17.0052 1.75294C17.4278 1.97039 17.2883 1.57241 19.2987 8.27237C21.2476 14.7672 21.1984 14.5826 21.0466 14.9436C20.9481 15.1693 20.7676 15.358 20.5419 15.4606C20.4352 15.5098 17.6576 16.355 14.3753 17.3397C8.66413 19.0506 8.39335 19.1285 8.14717 19.108C7.82305 19.0834 7.55636 18.9275 7.37994 18.669C7.28147 18.5213 6.88349 17.2453 5.4516 12.4737C3.85559 7.1564 3.64634 6.43429 3.64634 6.19633C3.65044 5.67527 3.92944 5.36755 4.56948 5.17062C5.61161 4.85059 8.81184 3.89873 8.84056 3.89873C8.85697 3.89873 8.87748 4.34594 8.88569 4.89162C8.898 5.83117 8.9021 5.90092 8.99236 6.09786C9.16468 6.47532 9.54625 6.77073 9.97705 6.85279C10.5268 6.95536 11.1505 6.62303 11.3884 6.09786C11.4787 5.89272 11.4828 5.85169 11.4951 4.48954L11.5074 3.09047L13.8953 2.36837C16.5744 1.5601 16.6073 1.556 17.0052 1.75294ZM7.43328 3.38587C7.42507 3.39818 6.64143 3.63615 5.70187 3.91924C4.75822 4.20234 3.89251 4.48134 3.77763 4.53878C3.50684 4.67827 3.1622 5.0065 3.0145 5.26908C2.82167 5.60552 2.75192 5.90913 2.77243 6.31531C2.79295 6.63533 2.96527 7.23435 4.52435 12.4245C5.47211 15.5878 6.25166 18.1972 6.25166 18.2177C6.25166 18.2464 5.61161 18.2587 4.41768 18.2587C2.38677 18.2587 2.40318 18.2587 2.13239 17.9879C1.8616 17.7171 1.88211 18.2587 1.86981 10.9351C1.8616 6.1553 1.87391 4.22696 1.90673 4.06695C1.96827 3.77564 2.25137 3.47614 2.52216 3.41459C2.70268 3.37357 7.47431 3.34484 7.43328 3.38587ZM10.6417 4.44031C10.6417 5.05574 10.6212 5.585 10.6007 5.67116C10.4817 6.09786 9.89909 6.09786 9.78011 5.67116C9.7596 5.58911 9.73908 5.09266 9.73908 4.5675V3.61974L10.0386 3.52947C10.1986 3.48434 10.3791 3.4269 10.4366 3.40639C10.6499 3.33254 10.6417 3.29151 10.6417 4.44031Z" fill="#ADB5BD" stroke="#ADB5BD" stroke-width="0.3"/>
</svg>
