<svg width="19" height="17" viewBox="0 0 19 17" fill="none" xmlns="http://www.w3.org/2000/svg">
<path d="M4.75 3.75C4.75 4.99264 5.75736 6 7 6V7.5C4.92893 7.5 3.25 5.82107 3.25 3.75H4.75ZM7 6C8.24264 6 9.25 4.99264 9.25 3.75H10.75C10.75 5.82107 9.07107 7.5 7 7.5V6ZM9.25 3.75C9.25 2.50736 8.24264 1.5 7 1.5V0C9.07107 0 10.75 1.67893 10.75 3.75H9.25ZM7 1.5C5.75736 1.5 4.75 2.50736 4.75 3.75H3.25C3.25 1.67893 4.92893 0 7 0V1.5ZM10 10.5H4V9H10V10.5ZM4 15H10V16.5H4V15ZM10 15C11.2426 15 12.25 13.9926 12.25 12.75H13.75C13.75 14.8211 12.0711 16.5 10 16.5V15ZM1.75 12.75C1.75 13.9926 2.75736 15 4 15V16.5C1.92893 16.5 0.25 14.8211 0.25 12.75H1.75ZM4 10.5C2.75736 10.5 1.75 11.5074 1.75 12.75H0.25C0.25 10.6789 1.92893 9 4 9V10.5ZM10 9C12.0711 9 13.75 10.6789 13.75 12.75H12.25C12.25 11.5074 11.2426 10.5 10 10.5V9Z" fill="#ADB5BD"/>
<path d="M11.2479 6.38865C11.4056 6.13527 11.7015 6 12 6C13.2426 6 14.25 4.99264 14.25 3.75C14.25 2.50736 13.2426 1.5 12 1.5C11.7015 1.5 11.4056 1.36473 11.2479 1.11135C11.2409 1.10014 11.2339 1.08896 11.2268 1.07782C10.9642 0.663308 11.0973 0.0764006 11.585 0.0227032C11.7213 0.00770099 11.8597 0 12 0C14.0711 0 15.75 1.67893 15.75 3.75C15.75 5.82107 14.0711 7.5 12 7.5C11.8597 7.5 11.7213 7.4923 11.585 7.4773C11.0973 7.4236 10.9642 6.83669 11.2268 6.42218C11.2339 6.41104 11.2409 6.39986 11.2479 6.38865Z" fill="#ADB5BD"/>
<path d="M14.2917 14.3169C14.4052 14.1275 14.6056 14 14.8264 14H15C16.2426 14 17.25 12.9926 17.25 11.75C17.25 10.5074 16.2426 9.5 15 9.5H14.8264C14.6056 9.5 14.4052 9.37252 14.2917 9.18313C14.0146 8.72082 14.3153 8 14.8543 8H15C17.0711 8 18.75 9.67893 18.75 11.75C18.75 13.8211 17.0711 15.5 15 15.5H14.8543C14.3153 15.5 14.0146 14.7792 14.2917 14.3169Z" fill="#ADB5BD"/>
<path d="M11.2479 6.38865C11.4056 6.13527 11.7015 6 12 6C13.2426 6 14.25 4.99264 14.25 3.75C14.25 2.50736 13.2426 1.5 12 1.5C11.7015 1.5 11.4056 1.36473 11.2479 1.11135C11.2409 1.10014 11.2339 1.08896 11.2268 1.07782C10.9642 0.663308 11.0973 0.0764006 11.585 0.0227032C11.7213 0.00770099 11.8597 0 12 0C14.0711 0 15.75 1.67893 15.75 3.75C15.75 5.82107 14.0711 7.5 12 7.5C11.8597 7.5 11.7213 7.4923 11.585 7.4773C11.0973 7.4236 10.9642 6.83669 11.2268 6.42218C11.2339 6.41104 11.2409 6.39986 11.2479 6.38865Z" stroke="#ADB5BD"/>
<path d="M14.2917 14.3169C14.4052 14.1275 14.6056 14 14.8264 14H15C16.2426 14 17.25 12.9926 17.25 11.75C17.25 10.5074 16.2426 9.5 15 9.5H14.8264C14.6056 9.5 14.4052 9.37252 14.2917 9.18313C14.0146 8.72082 14.3153 8 14.8543 8H15C17.0711 8 18.75 9.67893 18.75 11.75C18.75 13.8211 17.0711 15.5 15 15.5H14.8543C14.3153 15.5 14.0146 14.7792 14.2917 14.3169Z" stroke="#ADB5BD"/>
</svg>
